<?xml version="1.0" encoding="UTF-8" standalone="no"?>
<!-- Created with Inkscape (http://www.inkscape.org/) -->

<svg
   xmlns:dc="http://purl.org/dc/elements/1.1/"
   xmlns:cc="http://creativecommons.org/ns#"
   xmlns:rdf="http://www.w3.org/1999/02/22-rdf-syntax-ns#"
   xmlns:svg="http://www.w3.org/2000/svg"
   xmlns="http://www.w3.org/2000/svg"
   xmlns:sodipodi="http://sodipodi.sourceforge.net/DTD/sodipodi-0.dtd"
   xmlns:inkscape="http://www.inkscape.org/namespaces/inkscape"
   width="11in"
   height="8.5in"
   viewBox="0 0 279.4 215.9"
   version="1.1"
   id="svg8"
   sodipodi:docname="logo2.svg"
   inkscape:version="0.92.4 (0.92.4+202002201503+ce16d39)"
   inkscape:export-filename="/home/user/bitmap.png"
   inkscape:export-xdpi="96"
   inkscape:export-ydpi="96">
  <defs
     id="defs2" />
  <sodipodi:namedview
     id="base"
     pagecolor="#ffffff"
     bordercolor="#666666"
     borderopacity="1.0"
     inkscape:pageopacity="0.0"
     inkscape:pageshadow="2"
     inkscape:zoom="0.82"
     inkscape:cx="476.44763"
     inkscape:cy="423.96525"
     inkscape:document-units="mm"
     inkscape:current-layer="flowRoot4016"
     showgrid="false"
     units="in"
     inkscape:window-width="1920"
     inkscape:window-height="1023"
     inkscape:window-x="1920"
     inkscape:window-y="1"
     inkscape:window-maximized="1" />
  <metadata
     id="metadata5">
    <rdf:RDF>
      <cc:Work
         rdf:about="">
        <dc:format>image/svg+xml</dc:format>
        <dc:type
           rdf:resource="http://purl.org/dc/dcmitype/StillImage" />
        <dc:title></dc:title>
      </cc:Work>
    </rdf:RDF>
  </metadata>
  <g
     inkscape:label="Layer 1"
     inkscape:groupmode="layer"
     id="layer1"
     transform="translate(0,-81.1)">
    <g
       id="g4005"
       transform="matrix(0,0.00788208,0.00788208,0,19.064507,126.57602)"
       style="fill:#8e90e0;fill-opacity:1;stroke:none"
       inkscape:export-xdpi="96"
       inkscape:export-ydpi="96"
       inkscape:export-filename="/home/user/Documents/GitHub/zBlackWhite/images/logo.png">
      <path
         id="path4001"
         d="m 8600,10183 c -1004,-76 -2042,-466 -2865,-1078 -287,-213 -602,-510 -744,-700 -16,-22 -34,-40 -40,-40 -8,0 -56,-51 -170,-180 -14,-16 -56,-68 -91,-115 -36,-47 -69,-89 -73,-95 -22,-28 -89,-139 -127,-210 -24,-44 -48,-86 -53,-93 -12,-15 -74,-153 -89,-197 -5,-16 -13,-39 -17,-50 -69,-177 -98,-445 -62,-575 30,-107 36,-119 97,-181 26,-26 74,-57 110,-70 50,-20 190,-24 230,-8 74,30 101,44 131,64 31,20 31,22 15,39 -9,10 6,3 34,-14 68,-42 123,-49 161,-22 38,27 68,85 142,270 59,147 146,332 156,332 3,0 -6,-22 -20,-49 l -25,-49 67,64 c 36,35 70,64 74,64 4,0 14,6 22,14 98,98 502,266 641,266 15,0 26,6 26,13 0,8 10,22 23,33 l 22,19 -19,-22 c -40,-48 -11,-66 224,-138 212,-65 374,-121 410,-142 27,-15 23,-14 -69,18 -30,10 -55,19 -55,19 -1,0 -2,-10 -2,-22 -3,-37 -15,-93 -22,-98 -10,-7 -12,-32 -12,-158 -1,-63 3,-119 9,-125 5,-7 12,-41 15,-77 3,-36 10,-83 15,-105 42,-191 43,-199 38,-335 -7,-147 -25,-247 -58,-319 -11,-25 -26,-57 -32,-71 -7,-14 -24,-43 -39,-64 -16,-21 -28,-43 -28,-47 0,-8 -97,-140 -110,-149 -3,-3 -18,-22 -32,-42 -13,-21 -27,-36 -30,-33 -3,3 -18,-14 -33,-37 -16,-24 -39,-53 -53,-64 -15,-14 -22,-27 -17,-34 5,-8 4,-11 -1,-7 -11,7 -56,-56 -58,-81 -1,-9 -16,-46 -34,-80 -19,-35 -28,-61 -22,-57 6,4 -3,-18 -19,-48 -16,-30 -27,-58 -24,-61 3,-3 -2,-17 -11,-30 -9,-14 -16,-35 -16,-46 0,-11 -4,-28 -9,-38 -5,-9 -13,-28 -18,-42 -6,-14 -20,-46 -32,-73 -11,-26 -21,-53 -21,-60 0,-6 -13,-46 -29,-87 -48,-128 -111,-324 -111,-348 0,-12 -4,-30 -10,-40 -15,-27 -68,-250 -90,-376 -128,-751 -7,-1469 337,-2000 104,-160 192,-260 378,-431 76,-70 276,-197 418,-265 299,-145 661,-236 1076,-271 134,-11 529,-7 636,6 265,33 445,64 590,102 33,8 65,16 70,17 171,38 587,195 758,285 184,97 375,212 447,268 8,6 53,40 100,74 87,63 124,94 80,67 -37,-22 -227,-121 -210,-108 19,13 243,140 248,140 2,0 0,-5 -4,-12 -5,-7 -3,-8 5,-4 7,5 10,10 7,13 -3,3 41,37 97,76 699,480 1104,1076 1213,1788 22,138 25,488 6,624 -69,493 -258,967 -577,1445 -676,1011 -1791,1668 -3172,1870 -236,34 -473,50 -783,51 -200,1 -270,4 -218,9 43,4 89,15 102,23 59,39 249,137 265,137 6,0 11,5 11,10 0,6 5,10 11,10 21,0 548,269 684,349 17,10 73,42 125,71 52,29 130,77 173,107 42,29 79,53 81,53 9,0 387,257 474,322 119,90 280,249 350,346 29,39 50,72 47,72 -3,0 -27,-19 -53,-42 -26,-24 1,7 60,68 160,166 228,284 230,393 1,70 -18,109 -87,176 -119,116 -350,195 -659,225 -101,9 -379,11 -486,3 z m 890,-906 c 0,-2 -10,-12 -22,-23 l -23,-19 19,23 c 18,21 26,27 26,19 z M 4944,8348 c -11,-19 -95,-132 -102,-138 -10,-9 12,25 56,88 24,34 46,62 48,62 3,0 2,-6 -2,-12 z m 2224,-505 c -10,-2 -28,-2 -40,0 -13,2 -5,4 17,4 22,1 32,-1 23,-4 z m -939,-187 c -2,-2 -15,-9 -29,-15 -24,-11 -24,-11 -6,3 16,13 49,24 35,12 z m 21,-2126 c 0,-5 -5,-10 -11,-10 -5,0 -7,5 -4,10 3,6 8,10 11,10 2,0 4,-4 4,-10 z"
         inkscape:connector-curvature="0"
         style="fill:#8e90e0;fill-opacity:1" />
      <path
         id="path4003"
         d="m 2695,7233 c -164,-9 -369,-49 -505,-99 -337,-121 -691,-410 -955,-779 -31,-44 -61,-80 -65,-80 -5,0 -12,-4 -17,-9 -5,-5 -3,-6 5,-2 14,8 16,-5 3,-19 -5,-6 -34,-57 -65,-115 -31,-58 -56,-101 -56,-96 0,5 25,57 56,115 31,58 54,104 51,101 -3,-3 -33,-48 -68,-100 -35,-52 -66,-97 -70,-100 -4,-3 -13,-17 -19,-30 -6,-14 -29,-52 -50,-85 -22,-33 -45,-71 -51,-85 -5,-14 -25,-56 -43,-95 -43,-91 -83,-219 -100,-320 -24,-146 -4,-380 40,-468 8,-15 12,-27 9,-27 -3,0 9,-28 26,-62 177,-351 538,-577 1089,-682 228,-43 686,-61 930,-36 656,67 1278,260 1936,601 175,91 544,305 732,427 45,28 85,52 88,52 4,0 26,16 50,35 23,19 46,35 51,35 4,0 24,14 43,30 19,16 40,30 46,30 11,0 149,109 195,154 14,15 31,26 36,26 23,0 113,201 108,240 -1,8 -5,41 -9,74 -3,32 -9,63 -12,68 -4,6 -29,-12 -57,-39 -48,-46 -49,-46 -16,-7 19,23 65,77 102,120 146,171 307,433 307,502 0,86 -77,70 -437,-90 -419,-185 -602,-255 -809,-308 -166,-42 -255,-54 -409,-53 -159,0 -252,20 -362,75 -154,78 -242,178 -347,393 -82,169 -165,286 -259,368 -225,196 -517,310 -870,337 -119,9 -147,10 -252,3 z"
         inkscape:connector-curvature="0"
         style="fill:#8e90e0;fill-opacity:1" />
    </g>
    <g
       aria-label="UBI"
       transform="matrix(0.37624166,0,0,0.41890518,-50.57702,25.372944)"
       style="font-style:normal;font-variant:normal;font-weight:normal;font-stretch:normal;font-size:261.82373047px;line-height:1.25;font-family:Impact;-inkscape-font-specification:Impact;letter-spacing:0px;word-spacing:0px;fill:#7eb18d;fill-opacity:1;stroke:none"
       id="flowRoot4016">
      <path
         d="m 519.60194,396.78722 q 0.12784,12.27298 -9.0769,21.47772 -9.07689,9.0769 -19.9436,9.0769 h -0.89491 q -10.99455,0 -20.32713,-9.0769 -9.46043,-9.20474 -9.33259,-22.11694 l 0.76707,-77.98461 q 0,-7.67062 -5.36944,-13.29573 -5.49727,-5.62512 -13.29573,-5.62512 h -0.51138 q -10.22749,0.12784 -15.85261,5.62512 -5.36943,5.36943 -5.36943,13.29573 v 72.61518 q 0,29.14834 20.32714,49.47548 20.45498,20.45498 49.47548,20.45498 h 1.40628 q 28.38128,0.12784 48.0692,-20.07145 19.56007,-19.94361 19.56007,-48.0692 v -74.40499 q 0,-7.9263 -5.36943,-13.29573 -5.49728,-5.62512 -15.59692,-5.62512 h -0.51138 q -7.9263,0.12784 -13.55142,5.62512 -5.36943,5.62511 -5.36943,13.29573 z"
         style="font-style:normal;font-variant:normal;font-weight:normal;font-stretch:normal;font-size:261.82373047px;font-family:Dyuthi;-inkscape-font-specification:Dyuthi;fill:#7eb18d;fill-opacity:1"
         id="path4774" />
      <path
         d="m 631.33726,437.1858 q -6.90356,-0.25569 -9.71611,-0.25569 -2.17335,0 -3.57963,-1.40628 -1.66196,-1.40628 -1.66196,-3.19609 v -39.88721 q 0,-2.17334 1.66196,-3.57962 1.66197,-1.40628 3.70747,-1.40628 h 8.05415 q 15.34123,0 24.41813,4.73022 10.09964,5.11374 10.09964,20.96635 0,13.93495 -9.84395,19.30439 -9.0769,4.73021 -23.1397,4.73021 z m -14.9577,-107.00511 q 0,-4.47452 4.73021,-4.73021 4.60237,-0.12785 10.73886,-0.25569 24.92951,0 25.44088,21.9891 0.25569,11.63377 -7.28708,16.36399 -7.54277,4.60237 -21.60557,4.60237 h -6.77571 q -2.42903,-0.12785 -3.83531,-1.40628 -1.40628,-1.40628 -1.40628,-3.19609 z m 59.31944,44.23389 q 0,-1.66196 1.40628,-2.42903 21.9891,-9.9718 21.9891,-30.04325 0,-21.9891 -20.32714,-31.70521 -15.85261,-8.30984 -50.62607,-8.69337 -15.98045,-0.25569 -17.25889,-0.25569 -12.14514,-0.25568 -15.85261,-0.38353 -6.64787,-0.12784 -11.76161,4.60237 -4.85806,4.60237 -4.85806,11.50593 v 127.71577 q 0,7.28709 5.11375,11.76162 5.75296,4.85805 12.40083,4.60237 22.88401,-1.02275 24.29029,-0.89491 49.34763,-0.12784 66.73436,-12.78436 17.77027,-13.16789 17.64242,-32.98365 0,-28.1256 -27.23069,-36.30759 -1.66196,-0.63922 -1.66196,-3.70747 z"
         style="font-style:normal;font-variant:normal;font-weight:normal;font-stretch:normal;font-size:261.82373047px;font-family:Dyuthi;-inkscape-font-specification:Dyuthi;fill:#7eb18d;fill-opacity:1"
         id="path4776" />
      <path
         d="m 758.03027,442.29955 q 0,7.79846 -5.62511,13.55142 -5.36944,5.49727 -13.29574,5.49727 h -0.38353 q -7.92631,0 -13.55143,-5.49727 -5.62511,-5.62512 -5.62511,-13.55142 V 317.14064 q 0,-8.05415 5.62511,-13.55142 5.62512,-5.62512 13.55143,-5.62512 h 0.38353 q 7.67062,0 13.29574,5.62512 5.62511,5.49727 5.62511,13.55142 z"
         style="font-style:normal;font-variant:normal;font-weight:normal;font-stretch:normal;font-size:261.82373047px;font-family:Dyuthi;-inkscape-font-specification:Dyuthi;fill:#7eb18d;fill-opacity:1"
         id="path4778" />
    </g>
  </g>
</svg>
