<?xml version="1.0" standalone="no"?>
<!DOCTYPE svg PUBLIC "-//W3C//DTD SVG 20010904//EN"
 "http://www.w3.org/TR/2001/REC-SVG-20010904/DTD/svg10.dtd">
<svg version="1.0" xmlns="http://www.w3.org/2000/svg"
 width="1280.000000pt" height="1097.000000pt" viewBox="0 0 1280.000000 1097.000000"
 preserveAspectRatio="xMidYMid meet">
<metadata>
Created by potrace 1.15, written by Peter Selinger 2001-2017
</metadata>
<g transform="translate(0.000000,1097.000000) scale(0.100000,-0.100000)"
fill="#000000" stroke="none">
<path d="M8600 10183 c-1004 -76 -2042 -466 -2865 -1078 -287 -213 -602 -510
-744 -700 -16 -22 -34 -40 -40 -40 -8 0 -56 -51 -170 -180 -14 -16 -56 -68
-91 -115 -36 -47 -69 -89 -73 -95 -22 -28 -89 -139 -127 -210 -24 -44 -48 -86
-53 -93 -12 -15 -74 -153 -89 -197 -5 -16 -13 -39 -17 -50 -69 -177 -98 -445
-62 -575 30 -107 36 -119 97 -181 26 -26 74 -57 110 -70 50 -20 190 -24 230
-8 74 30 101 44 131 64 31 20 31 22 15 39 -9 10 6 3 34 -14 68 -42 123 -49
161 -22 38 27 68 85 142 270 59 147 146 332 156 332 3 0 -6 -22 -20 -49 l-25
-49 67 64 c36 35 70 64 74 64 4 0 14 6 22 14 98 98 502 266 641 266 15 0 26 6
26 13 0 8 10 22 23 33 l22 19 -19 -22 c-40 -48 -11 -66 224 -138 212 -65 374
-121 410 -142 27 -15 23 -14 -69 18 -30 10 -55 19 -55 19 -1 0 -2 -10 -2 -22
-3 -37 -15 -93 -22 -98 -10 -7 -12 -32 -12 -158 -1 -63 3 -119 9 -125 5 -7 12
-41 15 -77 3 -36 10 -83 15 -105 42 -191 43 -199 38 -335 -7 -147 -25 -247
-58 -319 -11 -25 -26 -57 -32 -71 -7 -14 -24 -43 -39 -64 -16 -21 -28 -43 -28
-47 0 -8 -97 -140 -110 -149 -3 -3 -18 -22 -32 -42 -13 -21 -27 -36 -30 -33
-3 3 -18 -14 -33 -37 -16 -24 -39 -53 -53 -64 -15 -14 -22 -27 -17 -34 5 -8 4
-11 -1 -7 -11 7 -56 -56 -58 -81 -1 -9 -16 -46 -34 -80 -19 -35 -28 -61 -22
-57 6 4 -3 -18 -19 -48 -16 -30 -27 -58 -24 -61 3 -3 -2 -17 -11 -30 -9 -14
-16 -35 -16 -46 0 -11 -4 -28 -9 -38 -5 -9 -13 -28 -18 -42 -6 -14 -20 -46
-32 -73 -11 -26 -21 -53 -21 -60 0 -6 -13 -46 -29 -87 -48 -128 -111 -324
-111 -348 0 -12 -4 -30 -10 -40 -15 -27 -68 -250 -90 -376 -128 -751 -7 -1469
337 -2000 104 -160 192 -260 378 -431 76 -70 276 -197 418 -265 299 -145 661
-236 1076 -271 134 -11 529 -7 636 6 265 33 445 64 590 102 33 8 65 16 70 17
171 38 587 195 758 285 184 97 375 212 447 268 8 6 53 40 100 74 87 63 124 94
80 67 -37 -22 -227 -121 -210 -108 19 13 243 140 248 140 2 0 0 -5 -4 -12 -5
-7 -3 -8 5 -4 7 5 10 10 7 13 -3 3 41 37 97 76 699 480 1104 1076 1213 1788
22 138 25 488 6 624 -69 493 -258 967 -577 1445 -676 1011 -1791 1668 -3172
1870 -236 34 -473 50 -783 51 -200 1 -270 4 -218 9 43 4 89 15 102 23 59 39
249 137 265 137 6 0 11 5 11 10 0 6 5 10 11 10 21 0 548 269 684 349 17 10 73
42 125 71 52 29 130 77 173 107 42 29 79 53 81 53 9 0 387 257 474 322 119 90
280 249 350 346 29 39 50 72 47 72 -3 0 -27 -19 -53 -42 -26 -24 1 7 60 68
160 166 228 284 230 393 1 70 -18 109 -87 176 -119 116 -350 195 -659 225
-101 9 -379 11 -486 3z m890 -906 c0 -2 -10 -12 -22 -23 l-23 -19 19 23 c18
21 26 27 26 19z m-4546 -929 c-11 -19 -95 -132 -102 -138 -10 -9 12 25 56 88
24 34 46 62 48 62 3 0 2 -6 -2 -12z m2224 -505 c-10 -2 -28 -2 -40 0 -13 2 -5
4 17 4 22 1 32 -1 23 -4z m-939 -187 c-2 -2 -15 -9 -29 -15 -24 -11 -24 -11
-6 3 16 13 49 24 35 12z m21 -2126 c0 -5 -5 -10 -11 -10 -5 0 -7 5 -4 10 3 6
8 10 11 10 2 0 4 -4 4 -10z"/>
<path d="M2695 7233 c-164 -9 -369 -49 -505 -99 -337 -121 -691 -410 -955
-779 -31 -44 -61 -80 -65 -80 -5 0 -12 -4 -17 -9 -5 -5 -3 -6 5 -2 14 8 16 -5
3 -19 -5 -6 -34 -57 -65 -115 -31 -58 -56 -101 -56 -96 0 5 25 57 56 115 31
58 54 104 51 101 -3 -3 -33 -48 -68 -100 -35 -52 -66 -97 -70 -100 -4 -3 -13
-17 -19 -30 -6 -14 -29 -52 -50 -85 -22 -33 -45 -71 -51 -85 -5 -14 -25 -56
-43 -95 -43 -91 -83 -219 -100 -320 -24 -146 -4 -380 40 -468 8 -15 12 -27 9
-27 -3 0 9 -28 26 -62 177 -351 538 -577 1089 -682 228 -43 686 -61 930 -36
656 67 1278 260 1936 601 175 91 544 305 732 427 45 28 85 52 88 52 4 0 26 16
50 35 23 19 46 35 51 35 4 0 24 14 43 30 19 16 40 30 46 30 11 0 149 109 195
154 14 15 31 26 36 26 23 0 113 201 108 240 -1 8 -5 41 -9 74 -3 32 -9 63 -12
68 -4 6 -29 -12 -57 -39 -48 -46 -49 -46 -16 -7 19 23 65 77 102 120 146 171
307 433 307 502 0 86 -77 70 -437 -90 -419 -185 -602 -255 -809 -308 -166 -42
-255 -54 -409 -53 -159 0 -252 20 -362 75 -154 78 -242 178 -347 393 -82 169
-165 286 -259 368 -225 196 -517 310 -870 337 -119 9 -147 10 -252 3z"/>
</g>
</svg>
